{"title":"A$AP Rocky Ft. Skrillex &amp; Birdy Nam Nam - Wild For The Night","uid":8832133,"size":213958853,"categoryP":"video","categoryS":"music_videos","magnet":"?xt=urn:btih:2e5d42ca2d7ce07629921a67fde80d2512dd5efd&amp;dn=A%24AP+Rocky+Ft.+Skrillex+%26amp%3B+Birdy+Nam+Nam+-+Wild+For+The+Night&amp;tr=udp%3A%2F%2Ftracker.openbittorrent.com%3A80&amp;tr=udp%3A%2F%2Fopen.demonii.com%3A1337&amp;tr=udp%3A%2F%2Ftracker.coppersurfer.tk%3A6969&amp;tr=udp%3A%2F%2Fexodus.desync.com%3A6969","seeders":3,"leechers":0,"uploader":"Sbyky","files":-1,"time":1377013822,"description":"[IMG]http://yuq.me/users/18/139/hf2PlQId8p.png[/IMG]\n\nGeneral\nComplete name                            : A$AP Rocky Ft. Skrillex &amp; Birdy Nam Nam - Wild For The Night [Explicit] 1080p [Sbyky].mp4\nFormat                                   : MPEG-4\nFormat profile                           : Base Media / Version 2\nCodec ID                                 : mp42\nFile size                                : 204 MiB\nDuration                                 : 5mn 51s\nOverall bit rate mode                    : Variable\nOverall bit rate                         : 4 873 Kbps\nEncoded date                             : UTC 2013-04-08 02:48:05\nTagged date                              : UTC 2013-04-08 02:48:05\n\nVideo\nID                                       : 1\nFormat                                   : AVC\nFormat/Info                              : Advanced Video Codec\nFormat profile                           : &lt;a class=&quot;__cf_email__&quot; href=&quot;/cdn-cgi/l/email-protection&quot; data-cfemail=&quot;9dd5f4faf5ddd1a9b3ad&quot;&gt;[email&amp;#160;protected]&lt;/a&gt;&lt;script cf-hash='f9e31' type=&quot;text/javascript&quot;&gt;\n/* &lt;![CDATA[ */!function(){try{var t=&quot;currentScript&quot;in document?document.currentScript:function(){for(var t=document.getElementsByTagName(&quot;script&quot;),e=t.length;e--;)if(t[e].getAttribute(&quot;cf-hash&quot;))return t[e]}();if(t&amp;&amp;t.previousSibling){var e,r,n,i,c=t.previousSibling,a=c.getAttribute(&quot;data-cfemail&quot;);if(a){for(e=&quot;&quot;,r=parseInt(a.substr(0,2),16),n=2;a.length-n;n+=2)i=parseInt(a.substr(n,2),16)^r,e+=String.fromCharCode(i);e=document.createTextNode(e),c.parentNode.replaceChild(e,c)}}}catch(u){}}();/* ]]&gt; */&lt;/script&gt;\nFormat settings, CABAC                   : Yes\nFormat settings, ReFrames                : 1 frame\nCodec ID                                 : avc1\nCodec ID/Info                            : Advanced Video Coding\nDuration                                 : 5mn 51s\nBit rate                                 : 4 679 Kbps\nMaximum bit rate                         : 11.4 Mbps\nWidth                                    : 1 920 pixels\nHeight                                   : 1 080 pixels\nDisplay aspect ratio                     : 16:9\nFrame rate mode                          : Constant\nFrame rate                               : 23.976 fps\nColor space                              : YUV\nChroma subsampling                       : 4:2:0\nBit depth                                : 8 bits\nScan type                                : Progressive\nBits/(Pixel*Frame)                       : 0.094\nStream size                              : 196 MiB (96%)\nTagged date                              : UTC 2013-04-08 02:48:44\n\nAudio\nID                                       : 2\nFormat                                   : AAC\nFormat/Info                              : Advanced Audio Codec\nFormat profile                           : LC\nCodec ID                                 : 40\nDuration                                 : 5mn 51s\nBit rate mode                            : Variable\nBit rate                                 : 192 Kbps\nMaximum bit rate                         : 201 Kbps\nChannel(s)                               : 2 channels\nChannel positions                        : Front: L R\nSampling rate                            : 44.1 KHz\nCompression mode                         : Lossy\nStream size                              : 8.04 MiB (4%)\nTitle                                    : IsoMedia File Produced by Google, 5-11-2011\nEncoded date                             : UTC 2013-04-08 02:48:35\nTagged date                              : UTC 2013-04-08 02:48:44\n\nShared By Sbyky\n[IMG]http://yuq.me/users/18/139/0aq32UMZvX.gif[/IMG]\n[IMG]http://yuq.me/users/18/139/bQg62viaEG.gif[/IMG]","torrent":{"xt":"urn:btih:2e5d42ca2d7ce07629921a67fde80d2512dd5efd","amp;dn":"A%24AP+Rocky+Ft.+Skrillex+%26amp%3B+Birdy+Nam+Nam+-+Wild+For+The+Night","amp;tr":["udp%3A%2F%2Ftracker.openbittorrent.com%3A80","udp%3A%2F%2Fopen.demonii.com%3A1337","udp%3A%2F%2Ftracker.coppersurfer.tk%3A6969","udp%3A%2F%2Fexodus.desync.com%3A6969"],"infoHash":"2e5d42ca2d7ce07629921a67fde80d2512dd5efd","infoHashBuffer":{"type":"Buffer","data":[46,93,66,202,45,124,224,118,41,146,26,103,253,232,13,37,18,221,94,253]},"announce":[],"urlList":[]}}